# xmcd CD database file
#
# Track frame offsets:
#	182
#	16982
#	33120
#	56640
#	77657
#	93482
#	109007
#	134807
#	163595
#	187345
#	202682
#	230357
#	254070
#	270782
#	286157
#	301982
#
# Disc length: 4236 seconds
#
# Revision: 0
# Processed by: cddbd v1.4PL0 Copyright (c) Steve Scherf et al.
# Submitted via: CDex 1.50beta10
#
DISCID=d5108a10
DTITLE=Cartes Postales - Bruno Husar
DYEAR=1900
DGENRE=Jazz
TTITLE0=gare saint-lazarre
TTITLE1=questions
TTITLE2=francophonie
TTITLE3=techno
TTITLE4=metro boulot dodo
TTITLE5=ce que j'aime
TTITLE6=marine
TTITLE7=paris
TTITLE8=pluton, mars ou jupiter
TTITLE9=comme ci, comme ca
TTITLE10=parle-moi de toi
TTITLE11=tu t'en vas
TTITLE12=gare saint-lazarre(instrumentales)
TTITLE13=questions (instrumentales)
TTITLE14=metro boulot dodo (instrumentales)
TTITLE15=j'aime (instrumentales)
EXTD=
EXTT0=
EXTT1=
EXTT2=
EXTT3=
EXTT4=
EXTT5=
EXTT6=
EXTT7=
EXTT8=
EXTT9=
EXTT10=
EXTT11=
EXTT12=
EXTT13=
EXTT14=
EXTT15=
PLAYORDER=
